# xmcd
#
# Track frame offsets:
#	150
#	28973
#	56018
#	86717
#	108470
#	160824
#	181178
#	222672
#	244813
#	266089
#	293283
#
# Disc length: 4208 seconds
#
# Revision: 0
# Processed by: cddbd v1.5.1PL2 Copyright (c) Steve Scherf et al.
# Submitted via: dBpowerAMP V4.0
#
DISCID=9f106e0b
DTITLE=Double Action - Howard Scott and Melvia " Chick Rogers" Williams - Raw to the Bone
DYEAR=2001
DGENRE=Blues
TTITLE0=Stormy Monday
TTITLE1=No Good Woman
TTITLE2=Don't Throw Your Love on me so Strong
TTITLE3=You'll Never Find Another Love Like Mine
TTITLE4=Sweet Home Chicago
TTITLE5=Don't Plat That Song For Me
TTITLE6=I Sing The Blues for you-/ The Thrill is Gone (Medley)
TTITLE7=Just Because
TTITLE8=Last Two Dollars
TTITLE9=To Know You
TTITLE10=Natural Woman
EXTD=Live Recording @ Kingston Mines Chicago
EXTT0=
EXTT1=
EXTT2=
EXTT3=
EXTT4=
EXTT5=
EXTT6=
EXTT7=
EXTT8=
EXTT9=
EXTT10=
PLAYORDER=
